# AST/ASF file generated using VICON BodyLanguage
# -----------------------------------------------
:version 1.10
:name VICON
:units
  mass 1.0
  length 0.45
  angle deg
:documentation
   .ast/.asf automatically generated from VICON data using
   VICON BodyBuilder and BodyLanguage model FoxedUp or BRILLIANT.MOD
:root
   order TX TY TZ RX RY RZ
   axis XYZ
   position 0 0 0  
   orientation 0 0 0 
:bonedata
  begin
     id 1 
     name lhipjoint
     direction 0.440178 -0.822639 0.359871 
     length 2.53113 
     axis 0 0 0  XYZ
  end
  begin
     id 2 
     name lfemur
     direction 0.34202 -0.939693 0  
     length 7.88132  
     axis 0 0 20  XYZ
    dof rx ry rz
    limits (-160.0 20.0)
           (-70.0 70.0)
           (-60.0 70.0)
  end
  begin
     id 3 
     name ltibia
     direction 0.34202 -0.939693 0   
     length 8.43783   
     axis 0 0 20   XYZ
    dof rx
    limits (-10.0 170.0)
  end
  begin
     id 4 
     name lfoot
     direction 0.0886351 -0.243523 0.965837   
     length 2.63414   
     axis -90 7.62852e-016 20   XYZ
    dof rx rz
    limits (-45.0 90.0)
           (-70.0 20.0)
  end
  begin
     id 5 
     name ltoes
     direction 1.53703e-011 -4.21717e-011 1   
     length 1.31427   
     axis -90 7.62852e-016 20   XYZ
    dof rx
    limits (-90.0 20.0)
  end
  begin
     id 6 
     name rhipjoint
     direction -0.399779 -0.839773 0.367367   
     length 2.47948  
     axis 0 0 0  XYZ 
  end
  begin
     id 7 
     name rfemur
     direction -0.34202 -0.939693 0   
     length 7.74806   
     axis 0 0 -20   XYZ
    dof rx ry rz
    limits (-160.0 20.0)
           (-70.0 70.0)
           (-70.0 60.0)
  end
  begin
     id 8 
     name rtibia
     direction -0.34202 -0.939693 0   
     length 8.74432   
     axis 0 0 -20   XYZ
    dof rx
    limits (-10.0 170.0)
 end
 begin
     id 9 
     name rfoot
     direction -0.108514 -0.298139 0.948334   
     length 2.66102  
     axis -90 -7.62852e-016 -20   XYZ
    dof rx rz
    limits (-45.0 90.0)
           (-20.0 70.0)
  end
  begin
     id 10 
     name rtoes
     direction -1.53392e-011 -4.22077e-011 1   
     length 1.31983   
     axis -90 -7.62852e-016 -20   XYZ
    dof rx
    limits (-90.0 20.0)
  end
  begin
     id 11 
     name lowerback
     direction 0.0113257 0.999866 0.0118602   
     length 2.58694   
     axis 0 0 0   XYZ
    dof rx ry rz
    limits (-20.0 45.0)
           (-30.0 30.0)
           (-30.0 30.0)
  end
  begin
     id 12 
     name upperback
     direction -0.0164747 0.995193 -0.0965375   
     length 2.52368   
     axis 0 0 0   XYZ
    dof rx ry rz
    limits (-20.0 45.0)
           (-30.0 30.0)
           (-30.0 30.0)
  end
  begin
     id 13 
     name thorax
     direction -0.0194301 0.99433 -0.104552   
     length 2.56099   
     axis 0 0 0   XYZ
    dof rx ry rz
    limits (-20.0 45.0)
           (-30.0 30.0)
           (-30.0 30.0)
  end
  begin
     id 14 
     name lowerneck
     direction 0.0148543 0.995587 -0.092657   
     length 1.71582   
     axis 0 0 0   XYZ
    dof rx ry rz
    limits (-20.0 45.0)
           (-30.0 30.0)
           (-30.0 30.0)
  end
  begin
     id 15 
     name upperneck
     direction -0.0135467 0.993656 -0.111639   
     length 1.68937   
     axis 0 0 0   XYZ
    dof rx ry rz
    limits (-20.0 45.0)
           (-30.0 30.0)
           (-30.0 30.0)
  end
  begin
     id 16
     name head
     direction -0.00615349 0.999547 -0.029448  
     length 1.7462  
     axis 0 0 0   XYZ
    dof rx ry rz
    limits (-20.0 45.0)
           (-30.0 30.0)
           (-30.0 30.0)
  end
  begin
     id 17 
     name lclavicle
     direction 0.988267 0.149885 0.0293713  
     length 4.47222  
     axis 0 0 0   XYZ
    dof ry rz
    limits (-20.0 10.0)
           (0.0 20.0)
  end
  begin
     id 18 
     name lhumerus
     direction 1 -4.48986e-011 -1.14833e-027   
     length 5.37148   
     axis 180 -30 -90   XYZ
    dof rx ry rz
    limits (-60.0 90.0)
           (-90.0 90.0)
           (-90.0 90.0)
  end
  begin
     id 19
     name lradius
     direction 0.999998 0.00170963 -0.000987055   
     length 3.94212   
     axis 180 -30 -90   XYZ
    dof rx
    limits (-10.0 170.0)
  end
  begin
     id 20
     name lwrist
     direction 0.999998 7.53149e-005 -0.00194706   
     length 1.97106   
     axis 4.65056e-015 90 90   XYZ
    dof ry
    limits (-180.0 0.0)
 end
  begin
     id 21 
     name lhand
     direction 1 -4.48973e-011 -1.31746e-026   
     length 1.17917   
     axis 8.4065e-015 90 90   XYZ
    dof rx rz
    limits (-90.0 90.0)
           (-45.0 45.0)
  end
  begin
     id 22 
     name lfingers
     direction 1 -4.49107e-011 -2.63492e-026   
     length 0.950679   
     axis 1.6813e-014 90 90   XYZ
    dof rx
    limits (0.0 90.0)
  end
  begin
     id 23
     name lthumb
     direction 0.707107 -6.35048e-011 0.707107   
     length 1.36499   
     axis -90 45 2.85299e-015   XYZ
    dof rx rz
    limits (-45.0 45.0)
           (-45.0 45.0)
  end
  begin
     id 24 
     name rclavicle
     direction -0.996699 0.0642895 -0.0495725   
     length 4.62611  
     axis 0 0 0   XYZ 
    dof ry rz
    limits (-10.0 20.0)
           (-20.0 0.0)
  end
  begin
     id 25 
     name rhumerus
     direction -1 -4.48919e-011 -2.41059e-027  
     length 5.4981   
     axis 180 30 90   XYZ
    dof rx ry rz
    limits (-90.0 60.0)
           (-90.0 90.0)
           (-90.0 90.0)
  end
  begin
     id 26 
     name rradius
     direction -0.999999 0.00118101 -0.000681858   
     length 3.48381   
     axis 180 30 90   XYZ
    dof rx
    limits (-10.0 170.0)
  end
  begin
     id 27 
     name rwrist
     direction -0.999999 0.000321823 -0.00132288   
     length 1.7419   
     axis 4.65056e-015 -90 -90   XYZ
    dof ry
    limits (-180.0 0.0)
  end
  begin
     id 28
     name rhand
     direction -1 -4.49022e-011 -1.31746e-026   
     length 1.34932   
     axis 8.4065e-015 -90 -90   XYZ
    dof rx rz
    limits (-90.0 90.0)
           (-45.0 45.0)
  end
  begin
     id 29
     name rfingers
     direction -1 -4.49178e-011 -2.63492e-026   
     length 1.08785   
     axis 1.6813e-014 -90 -90   XYZ
    dof rx
    limits (0.0 90.0)
  end
  begin
     id 30
     name rthumb
     direction -0.707107 -6.34713e-011 0.707107   
     length 1.56195   
     axis -90 -45 -2.85299e-015   XYZ
    dof rx rz
    limits (-45.0 45.0)
           (-45.0 45.0)
  end
:hierarchy
  begin
    root lhipjoint rhipjoint lowerback
    lhipjoint lfemur
    lfemur ltibia
    ltibia lfoot
    lfoot ltoes
    rhipjoint rfemur
    rfemur rtibia
    rtibia rfoot
    rfoot rtoes
    lowerback upperback
    upperback thorax
    thorax lowerneck lclavicle rclavicle
    lowerneck upperneck
    upperneck head
    lclavicle lhumerus
    lhumerus lradius
    lradius lwrist
    lwrist lhand lthumb
    lhand lfingers
    rclavicle rhumerus
    rhumerus rradius
    rradius rwrist
    rwrist rhand rthumb
    rhand rfingers
  end

#!OML:ASF X:\für Bonn\!DataBase\2005_08_10_Bjorn_Final\c3d\bjorn.ASF
:FULLY-SPECIFIED
:DEGREES
1
root 0.665264 19.2011 2.86335 -177.06 -4.38643 -179.681
lowerback -10.3699 2.94507 1.61804
upperback 2.75241 3.69729 0.184576
thorax 8.84913 1.87013 -0.0512303
lowerneck -8.48259 -0.979262 -1.73507
upperneck 25.111 -1.56428 -4.58607
head 9.25422 -1.98611 -1.54058
rclavicle 7.26806e-014 1.98785e-015
rhumerus -22.8108 12.226 -84.7863
rradius 48.5738
rwrist 10.1257
rhand -14.8068 17.3469
rfingers 7.12502
rthumb 11.3511 -12.3259
lclavicle 7.26806e-014 1.98785e-015
lhumerus -35.1265 -20.6936 91.7747
lradius 24.856
lwrist -23.0521
lhand -18.0401 -13.0041
lfingers 7.12502
lthumb 8.2316 16.8155
rfemur -12.5179 -18.2096 17.8559
rtibia 30.3424
rfoot -16.6229 17.0107
rtoes 3.72555
lfemur -18.4343 3.33053 -15.3239
ltibia 41.0697
lfoot -12.8088 1.56798
ltoes -12.5761
2
root 0.641605 19.1914 2.84263 -176.939 -4.95525 -179.439
lowerback -10.3937 2.84614 1.56694
upperback 2.64063 3.56769 0.237411
thorax 8.73192 1.80281 0.00709185
lowerneck -8.7342 -1.08106 -1.94826
upperneck 24.9846 -1.63313 -4.52702
head 9.26014 -2.0151 -1.48994
rclavicle 3.62534e-014 -3.57812e-015
rhumerus -23.5787 10.9098 -84.8529
rradius 46.8022
rwrist 10.7749
rhand -14.6331 16.8279
rfingers 7.12502
rthumb 11.5186 -12.8356
lclavicle 3.62534e-014 -3.57812e-015
lhumerus -35.1738 -21.3558 92.0584
lradius 25.4792
lwrist -22.3128
lhand -18.199 -12.9614
lfingers 7.12502
lthumb 8.0783 16.8642
rfemur -12.5899 -18.3653 18.0934
rtibia 30.4402
rfoot -16.8645 16.6537
rtoes 3.07018
lfemur -18.2109 3.28623 -15.1539
ltibia 40.4158
lfoot -13.278 1.18393
ltoes -12.3914
3
root 0.617114 19.1828 2.82313 -176.816 -5.4834 -179.233
lowerback -10.4109 2.75196 1.50551
upperback 2.55308 3.44677 0.278958
thorax 8.63795 1.73957 0.0614565
lowerneck -8.99599 -1.17469 -2.17739
upperneck 24.8451 -1.68677 -4.45847
head 9.26419 -2.03639 -1.43173
rclavicle 2.26366e-014 -8.74653e-015
rhumerus -24.2641 9.47364 -84.845
rradius 45.097
rwrist 11.4579
rhand -14.3864 16.2925
rfingers 7.12502
rthumb 11.7565 -13.3576
lclavicle 2.26366e-014 -8.74653e-015
lhumerus -35.1971 -22.0105 92.3144
lradius 26.1429
lwrist -21.4853
lhand -18.3227 -12.9478
lfingers 7.12502
lthumb 7.95884 16.8823
rfemur -12.6563 -18.4676 18.2964
rtibia 30.5116
rfoot -17.1307 16.2492
rtoes 2.08853
lfemur -18.0385 3.25356 -15.0299
ltibia 39.8354
lfoot -13.7412 0.830567
ltoes -12.2472
4
root 0.59237 19.1731 2.80554 -176.721 -6.01097 -179.084
lowerback -10.3538 2.67819 1.41485
upperback 2.46211 3.36229 0.280133
thorax 8.49914 1.6942 0.0922679
lowerneck -9.24079 -1.28653 -2.34066
upperneck 24.709 -1.77454 -4.40795
head 9.26483 -2.06936 -1.39444
rclavicle -1.51946e-014 -3.97569e-016
rhumerus -24.8035 8.04728 -84.7879
rradius 43.2218
rwrist 12.1344
rhand -14.2662 15.7604
rfingers 7.12502
rthumb 11.8725 -13.883
lclavicle -1.51946e-014 -3.97569e-016
lhumerus -35.2107 -22.7491 92.5396
lradius 26.772
lwrist -20.6304
lhand -18.4573 -13.0239
lfingers 7.12502
lthumb 7.82899 16.8111
rfemur -12.6987 -18.4214 18.439
rtibia 30.5866
rfoot -17.4306 15.6952
rtoes 1.13336
lfemur -17.8802 3.21812 -14.9695
ltibia 39.3071
lfoot -14.1557 0.496971
ltoes -12.1952
5
root 0.566786 19.1646 2.78857 -176.629 -6.52026 -178.934
lowerback -10.3012 2.61314 1.3481
upperback 2.39549 3.28512 0.287516
thorax 8.39096 1.65338 0.118911
lowerneck -9.48573 -1.39703 -2.57719
upperneck 24.5596 -1.85791 -4.30053
head 9.26282 -2.09978 -1.32461
rclavicle 2.00804e-014 7.00716e-015
rhumerus -25.1519 6.65225 -84.6351
rradius 41.1583
rwrist 12.8064
rhand -14.182 15.2921
rfingers 7.12502
rthumb 11.9536 -14.3466
lclavicle 2.00804e-014 7.00716e-015
lhumerus -35.1737 -23.4624 92.7413
lradius 27.4026
lwrist -19.7418
lhand -18.5168 -13.0675
lfingers 7.12502
lthumb 7.7715 16.7697
rfemur -12.733 -18.3105 18.5824
rtibia 30.6581
rfoot -17.7344 15.0769
rtoes 0.20963
lfemur -17.7486 3.16927 -14.9132
ltibia 38.821
lfoot -14.5058 0.206557
ltoes -12.0645
6
root 0.540448 19.1561 2.773 -176.553 -7.00547 -178.822
lowerback -10.229 2.56889 1.28165
upperback 2.35689 3.23968 0.252122
thorax 8.30501 1.62948 0.105927
lowerneck -9.69993 -1.51297 -2.67835
upperneck 24.3708 -1.95424 -4.27515
head 9.23835 -2.13047 -1.30574
rclavicle 4.84957e-014 -5.41688e-015
rhumerus -25.4681 5.0776 -84.4462
rradius 39.1209
rwrist 13.6355
rhand -14.0139 14.7817
rfingers 7.12502
rthumb 12.1157 -14.8475
lclavicle 4.84957e-014 -5.41688e-015
lhumerus -35.071 -24.2223 92.8482
lradius 27.9769
lwrist -18.9034
lhand -18.5702 -13.1534
lfingers 7.12502
lthumb 7.71997 16.6856
rfemur -12.7548 -18.152 18.673
rtibia 30.741
rfoot -18.0373 14.4767
rtoes -0.805768
lfemur -17.6185 3.16527 -14.9001
ltibia 38.363
lfoot -14.8211 -0.0898373
ltoes -11.9487
7
root 0.513237 19.1481 2.75895 -176.489 -7.45266 -178.707
lowerback -10.1427 2.54159 1.21718
upperback 2.33655 3.21563 0.226722
thorax 8.23056 1.61579 0.106163
lowerneck -9.8341 -1.63537 -2.77687
upperneck 24.1471 -2.06743 -4.24904
head 9.1865 -2.16825 -1.28685
rclavicle -8.05474e-014 -6.81459e-015
rhumerus -25.7461 3.41101 -84.1707
rradius 37.0995
rwrist 14.4952
rhand -13.7386 14.255
rfingers 7.12502
rthumb 12.3811 -15.3584
lclavicle -8.05474e-014 -6.81459e-015
lhumerus -34.9393 -24.9766 92.932
lradius 28.5522
lwrist -18.1829
lhand -18.6006 -13.2098
lfingers 7.12502
lthumb 7.69064 16.6303
rfemur -12.7782 -18.0448 18.762
rtibia 30.8147
rfoot -18.2935 13.9182
rtoes -1.94406
lfemur -17.4948 3.13848 -14.8857
ltibia 37.935
lfoot -15.0903 -0.319371
ltoes -11.6816
8
root 0.486105 19.1408 2.74643 -176.424 -7.88745 -178.615
lowerback -10.0686 2.52454 1.12878
upperback 2.35276 3.20874 0.192201
thorax 8.20201 1.60953 0.114926
lowerneck -9.93261 -1.76167 -2.79461
upperneck 23.8711 -2.19495 -4.24609
head 9.10809 -2.205 -1.28892
rclavicle -5.09634e-014 -3.18055e-015
rhumerus -25.8818 1.42437 -83.7866
rradius 34.963
rwrist 15.6089
rhand -13.362 13.8113
rfingers 7.12502
rthumb 12.7442 -15.7798
lclavicle -5.09634e-014 -3.18055e-015
lhumerus -34.7086 -25.6622 92.9181
lradius 29.0769
lwrist -17.7003
lhand -18.6525 -13.21
lfingers 7.12502
lthumb 7.6406 16.632
rfemur -12.8059 -18.0083 18.8272
rtibia 30.8874
rfoot -18.5662 13.4283
rtoes -3.25345
lfemur -17.3887 3.16759 -14.8947
ltibia 37.5241
lfoot -15.2949 -0.59058
ltoes -11.1866
9
root 0.457914 19.1346 2.73492 -176.385 -8.29425 -178.537
lowerback -9.97404 2.50159 1.02219
upperback 2.39793 3.19521 0.169654
thorax 8.19108 1.59879 0.145308
lowerneck -9.96772 -1.87802 -2.7857
upperneck 23.5401 -2.30797 -4.29008
head 8.99816 -2.23656 -1.30748
rclavicle 2.85442e-014 -5.1684e-015
rhumerus -25.9592 -0.653904 -83.3073
rradius 32.8286
rwrist 16.7886
rhand -12.8127 13.3124
rfingers 7.12502
rthumb 13.2738 -16.2449
lclavicle 2.85442e-014 -5.1684e-015
lhumerus -34.4714 -26.3078 92.8659
lradius 29.6107
lwrist -17.327
lhand -18.6783 -13.2243
lfingers 7.12502
lthumb 7.61568 16.6186
rfemur -12.8041 -18.0356 18.8524
rtibia 30.9447
rfoot -18.7327 13.0504
rtoes -4.31535
lfemur -17.2491 3.18808 -14.9229
ltibia 37.1292
lfoot -15.4896 -0.836113
ltoes -10.6656
10
root 0.429686 19.131 2.72449 -176.33 -8.69289 -178.442
lowerback -9.88997 2.48269 0.936818
upperback 2.43018 3.18318 0.15601
thorax 8.17299 1.58946 0.173598
lowerneck -9.85884 -1.99559 -2.79735
upperneck 23.1442 -2.43619 -4.31366
head 8.83978 -2.27415 -1.31293
rclavicle -1.65985e-014 1.19271e-015
rhumerus -26.0815 -2.84905 -82.7462
rradius 30.7238
rwrist 17.9583
rhand -12.2199 12.822
rfingers 7.12502
rthumb 13.8451 -16.6972
lclavicle -1.65985e-014 1.19271e-015
lhumerus -34.2509 -26.855 92.7815
lradius 30.089
lwrist -17.144
lhand -18.7609 -13.269
lfingers 7.12502
lthumb 7.53595 16.5767
rfemur -12.824 -18.058 18.9049
rtibia 30.9935
rfoot -18.9017 12.6424
rtoes -5.38548
lfemur -17.1381 3.2426 -14.9321
ltibia 36.744
lfoot -15.6741 -1.06934
ltoes -10.379
11
root 0.402314 19.127 2.71539 -176.287 -9.07181 -178.403
lowerback -9.80164 2.46767 0.783578
upperback 2.49099 3.1859 0.130388
thorax 8.1802 1.58423 0.230372
lowerneck -9.72061 -2.10716 -2.76483
upperneck 22.7586 -2.56651 -4.35077
head 8.67925 -2.31194 -1.33016
rclavicle -4.18317e-014 -2.5842e-015
rhumerus -26.1523 -5.34659 -82.0642
rradius 28.6167
rwrist 19.3394
rhand -11.5376 12.3667
rfingers 7.12502
rthumb 14.5026 -17.1064
lclavicle -4.18317e-014 -2.5842e-015
lhumerus -33.9888 -27.4602 92.6685
lradius 30.5406
lwrist -17.0409
lhand -18.8305 -13.2529
lfingers 7.12502
lthumb 7.4688 16.5952
rfemur -12.8172 -18.0235 18.8955
rtibia 31.0253
rfoot -19.0852 12.1951
rtoes -6.51521
lfemur -17.0039 3.33299 -14.9977
ltibia 36.3717
lfoot -15.8666 -1.36015
ltoes -9.99649
12
root 0.374411 19.1246 2.70757 -176.242 -9.45881 -178.329
lowerback -9.73503 2.46348 0.705789
upperback 2.58618 3.19416 0.0857828
thorax 8.24258 1.5855 0.2279
lowerneck -9.6525 -2.22255 -2.65658
upperneck 22.3877 -2.70437 -4.40817
head 8.5356 -2.34864 -1.36886
rclavicle -4.2043e-014 -1.78906e-015
rhumerus -26.2131 -8.01142 -81.3203
rradius 26.5603
rwrist 20.7869
rhand -10.9223 11.8695
rfingers 7.12502
rthumb 15.0953 -17.5601
lclavicle -4.2043e-014 -1.78906e-015
lhumerus -33.7005 -28.2141 92.5168
lradius 31.0209
lwrist -16.8708
lhand -18.924 -13.3235
lfingers 7.12502
lthumb 7.37854 16.5278
rfemur -12.8252 -18.1242 18.9253
rtibia 31.0482
rfoot -19.2166 11.8338
rtoes -7.5994
lfemur -16.8962 3.39321 -15.0215
ltibia 36.0155
lfoot -16.0256 -1.63165
ltoes -9.48213
